<?xml version="1.0" encoding="UTF-8" ?>
<!DOCTYPE svg PUBLIC "-//W3C//DTD SVG 1.1//EN" "http://www.w3.org/Graphics/SVG/1.1/DTD/svg11.dtd">
<svg width="908pt" height="550pt" viewBox="0 0 908 550" version="1.1" xmlns="http://www.w3.org/2000/svg">
<path fill="none" d=" M 0.00 0.00 L 908.00 0.00 L 908.00 550.00 L 0.00 550.00 L 0.00 0.00 Z" />
<path fill="#cbc9c3" d=" M 123.48 110.39 C 128.96 109.21 134.35 107.20 140.01 107.22 C 176.68 107.24 213.36 107.26 250.03 107.21 C 256.16 106.87 262.00 108.95 267.92 110.21 C 273.05 111.43 276.78 115.41 281.02 118.28 C 289.83 112.93 300.12 111.21 310.01 108.91 C 321.86 106.54 334.00 107.41 346.01 107.24 C 357.33 107.35 368.81 106.68 379.95 109.12 C 389.49 111.41 399.35 113.17 407.92 118.23 C 412.36 115.11 416.43 110.88 422.01 109.96 C 426.98 108.92 431.85 107.16 436.99 107.22 C 464.35 107.28 491.72 107.19 519.09 107.26 C 528.62 107.17 537.85 109.72 547.02 111.99 C 551.08 112.97 554.93 114.62 558.63 116.52 C 562.16 113.98 565.58 110.90 569.99 110.06 C 575.31 108.98 580.54 107.02 586.05 107.21 C 593.70 107.39 601.51 106.54 608.92 108.96 C 619.88 110.36 629.13 118.41 633.59 128.29 C 635.30 134.71 637.47 141.21 637.19 147.94 C 637.12 172.34 637.22 196.74 637.14 221.14 C 639.91 221.05 642.68 220.97 645.46 220.89 C 645.34 196.60 645.49 172.31 645.39 148.02 C 645.12 141.46 647.22 135.13 648.79 128.84 C 652.14 120.74 658.84 114.14 666.82 110.61 C 673.14 109.17 679.43 106.96 686.00 107.23 C 689.98 107.27 693.97 107.16 697.96 107.24 C 704.06 107.37 709.77 110.01 715.78 110.64 C 721.88 109.64 727.76 107.14 734.03 107.23 C 761.35 107.28 788.67 107.16 816.00 107.29 C 825.78 107.25 835.27 109.83 844.69 112.20 C 853.60 114.44 861.22 120.02 868.01 125.99 C 873.61 132.41 878.97 139.57 880.84 148.07 C 882.39 155.00 884.59 161.89 884.56 169.07 C 884.54 183.03 884.60 196.98 884.54 210.94 C 884.52 217.83 882.41 224.44 880.94 231.10 C 879.07 239.83 873.51 247.17 867.67 253.66 C 860.70 259.77 852.82 265.39 843.65 267.55 C 837.16 268.98 830.76 270.93 824.12 271.53 C 829.61 274.92 835.04 278.75 838.91 284.00 C 841.92 288.16 845.14 292.24 847.18 296.99 C 849.46 302.17 850.24 307.82 851.68 313.26 C 853.97 321.96 854.16 331.27 851.90 340.00 C 850.57 345.40 849.48 350.87 847.75 356.17 C 851.46 357.20 855.23 358.00 858.99 358.87 C 864.26 359.76 868.27 363.58 872.34 366.73 C 876.48 371.35 880.42 376.59 881.33 382.92 C 884.01 392.31 884.83 402.44 882.24 411.95 C 881.03 416.34 880.69 421.17 877.89 424.94 C 875.64 427.98 873.72 431.42 870.58 433.65 C 867.23 435.97 864.12 438.99 859.98 439.77 C 854.37 440.94 848.87 442.94 843.10 442.98 C 771.06 442.91 699.01 442.97 626.97 442.95 C 617.64 442.85 608.27 443.36 598.99 442.26 C 591.25 441.55 583.79 439.33 576.24 437.65 C 569.80 436.10 563.42 433.86 557.95 430.07 C 552.33 426.11 546.37 422.38 542.03 416.95 C 536.66 409.95 531.10 402.69 529.14 393.89 C 527.45 385.96 524.58 378.16 524.68 369.96 C 524.50 361.95 524.88 353.93 524.46 345.93 C 524.39 359.62 524.21 373.30 524.30 387.00 C 524.02 395.00 525.44 403.17 523.28 411.03 C 521.83 416.11 521.57 421.81 518.04 426.04 C 514.31 432.01 508.55 436.67 502.09 439.39 C 495.81 440.85 489.56 443.01 483.05 443.00 C 438.69 442.88 394.32 443.01 349.96 442.93 C 338.70 442.88 327.81 439.83 316.98 437.12 C 312.10 435.88 307.66 433.46 303.36 430.92 C 298.75 434.70 294.11 439.09 288.02 440.16 C 283.04 441.18 278.16 442.91 273.04 442.98 C 241.35 442.92 209.66 442.96 177.97 442.96 C 170.89 442.84 163.78 442.20 156.91 440.44 C 147.93 438.24 138.42 436.71 130.68 431.30 C 126.06 427.96 121.04 425.00 117.36 420.57 C 112.19 414.09 106.91 407.24 105.16 398.95 C 103.55 391.38 100.95 383.91 100.99 376.09 C 100.99 354.44 101.04 332.80 100.97 311.15 C 99.29 310.44 97.61 309.72 95.94 308.99 C 92.96 309.68 90.02 310.53 87.01 311.10 C 81.80 312.20 76.83 307.83 71.69 309.66 C 67.76 310.87 63.73 311.73 59.72 312.66 C 56.09 313.54 52.59 311.77 49.06 311.17 C 39.40 309.67 31.62 302.28 27.21 293.87 C 25.70 289.00 24.49 283.99 23.80 278.93 C 23.67 266.73 26.90 254.85 29.66 243.06 C 33.44 226.67 40.24 210.85 50.55 197.49 C 57.21 187.72 65.38 178.95 75.14 172.22 C 83.26 165.94 92.20 160.76 101.73 156.95 C 99.91 146.91 102.05 136.79 105.12 127.24 C 109.00 119.70 115.39 113.22 123.48 110.39 Z" />
<path fill="#fefefe" d=" M 124.33 115.47 C 129.44 114.11 134.61 112.49 139.94 112.44 C 177.29 112.47 214.64 112.46 251.99 112.44 C 257.32 112.50 262.50 114.07 267.61 115.45 C 272.44 117.62 276.78 121.04 279.72 125.48 C 287.07 119.81 296.05 117.05 305.03 115.24 C 318.38 111.53 332.33 112.62 346.01 112.46 C 356.67 112.57 367.46 111.90 378.00 113.96 C 388.82 116.24 400.19 118.41 409.11 125.43 C 413.04 120.20 418.51 115.58 425.11 114.39 C 429.03 113.51 432.95 112.38 437.01 112.45 C 464.35 112.48 491.70 112.42 519.04 112.48 C 528.80 112.44 538.31 114.92 547.66 117.46 C 551.85 118.58 555.52 120.92 559.33 122.91 C 562.27 120.00 565.57 117.32 569.34 115.57 C 575.42 113.90 581.61 112.04 588.00 112.43 C 593.96 112.65 600.05 111.85 605.89 113.40 C 609.85 114.46 614.18 114.86 617.57 117.39 C 622.37 120.47 626.29 124.90 628.76 130.03 C 630.43 135.87 632.32 141.83 632.02 147.99 C 631.98 174.59 632.00 201.20 632.01 227.80 C 638.07 225.91 644.55 225.51 650.65 227.47 C 650.55 200.65 650.71 173.82 650.62 147.00 C 650.52 141.42 652.05 135.98 653.59 130.68 C 656.55 123.80 662.20 118.10 669.13 115.25 C 673.13 114.26 677.14 113.25 681.21 112.60 C 692.61 112.19 704.51 111.66 715.16 116.51 C 721.89 114.35 728.83 112.14 736.00 112.43 C 762.66 112.51 789.33 112.39 816.00 112.49 C 825.77 112.45 835.31 114.92 844.67 117.52 C 851.10 119.27 856.45 123.38 861.70 127.32 C 865.73 130.31 868.35 134.68 871.24 138.68 C 875.44 144.67 876.56 152.05 878.21 159.01 C 879.30 163.59 879.39 168.31 879.37 172.99 C 879.32 185.66 879.41 198.32 879.33 210.98 C 879.31 217.48 877.45 223.75 875.96 230.01 C 874.20 237.78 869.18 244.30 863.98 250.12 C 857.94 255.27 851.34 260.19 843.55 262.28 C 834.21 264.71 824.73 267.16 815.00 267.01 C 809.45 267.17 803.86 266.56 798.35 267.38 C 806.28 269.21 814.54 270.92 821.37 275.64 C 825.98 278.89 830.88 281.98 834.37 286.51 C 838.21 291.57 842.14 296.76 843.94 302.95 C 846.85 313.69 849.72 324.87 847.55 336.04 C 845.62 344.62 844.24 353.62 839.31 361.11 C 846.27 360.60 853.05 362.49 859.66 364.39 C 866.29 367.27 871.61 372.71 874.92 379.08 C 878.18 388.59 879.67 398.93 877.78 408.90 C 876.46 413.89 876.03 419.40 872.65 423.56 C 869.67 428.20 865.22 431.76 860.36 434.25 C 855.02 435.81 849.58 437.43 844.01 437.75 C 771.69 437.77 699.38 437.75 627.06 437.76 C 615.72 437.70 604.30 438.21 593.07 436.29 C 580.29 433.54 566.70 431.23 556.29 422.68 C 548.28 417.77 542.77 410.01 537.92 402.17 C 533.91 394.74 532.55 386.31 530.63 378.19 C 528.48 365.95 529.91 353.46 529.35 341.12 C 525.93 341.15 522.52 341.15 519.11 341.16 C 519.20 361.45 518.89 381.75 519.28 402.04 C 519.32 407.62 517.57 412.98 516.26 418.34 C 513.55 425.59 507.51 431.23 500.61 434.50 C 494.54 436.17 488.36 438.03 481.99 437.80 C 438.66 437.70 395.33 437.81 351.99 437.74 C 343.19 437.74 334.46 436.43 325.97 434.16 C 317.36 432.51 309.09 429.12 302.20 423.65 C 298.12 429.90 291.47 434.70 284.02 435.92 C 280.39 436.71 276.78 437.84 273.03 437.77 C 241.68 437.74 210.32 437.77 178.97 437.76 C 171.61 437.66 164.20 437.07 157.04 435.26 C 148.56 433.39 139.78 431.51 132.55 426.41 C 128.38 423.41 123.94 420.59 120.66 416.55 C 116.52 411.08 112.12 405.52 110.39 398.74 C 108.45 390.93 106.07 383.07 106.13 374.94 C 106.13 352.32 106.12 329.71 106.15 307.09 C 102.99 306.38 99.90 305.32 97.16 303.57 C 93.08 304.29 89.14 305.83 84.99 306.07 C 80.83 305.67 76.88 304.19 72.79 303.42 C 68.94 305.66 64.50 306.27 60.26 307.38 C 57.06 308.38 53.84 307.00 50.72 306.39 C 42.33 305.06 35.39 298.79 31.76 291.31 C 30.28 286.00 28.53 280.56 29.01 274.97 C 29.73 263.00 32.83 251.36 35.74 239.78 C 39.77 224.78 46.72 210.57 56.29 198.31 C 64.85 185.90 76.90 176.45 89.61 168.59 C 95.35 165.23 101.44 162.48 107.78 160.49 C 105.76 152.52 105.75 144.01 107.95 136.08 C 109.30 126.97 116.00 119.11 124.33 115.47 Z" />
<path fill="#74a72b" d=" M 130.52 141.93 C 131.35 138.55 134.51 136.34 137.95 136.52 C 175.97 136.42 213.98 136.51 251.99 136.47 C 254.75 136.50 258.09 136.57 259.97 138.92 C 262.09 141.86 261.46 145.67 261.61 149.07 C 261.52 152.09 261.89 155.47 259.97 158.05 C 258.35 160.18 255.40 160.36 252.95 160.43 C 239.35 160.42 225.74 160.45 212.14 160.42 C 212.10 189.04 212.17 217.67 212.16 246.30 C 201.38 246.31 190.60 246.29 179.83 246.30 C 179.81 217.67 179.92 189.03 179.83 160.40 C 166.21 160.48 152.58 160.42 138.96 160.42 C 135.82 160.53 131.88 159.59 130.98 156.11 C 129.90 151.47 130.54 146.65 130.52 141.93 Z" />
<path fill="#74a72b" d=" M 324.74 136.57 C 335.81 136.38 346.88 136.52 357.96 136.48 C 367.58 136.44 377.39 137.15 386.50 140.49 C 394.36 143.35 401.62 148.76 405.36 156.39 C 409.88 164.82 410.29 174.66 410.06 184.01 C 410.09 201.35 410.10 218.68 410.07 236.01 C 409.98 245.82 407.41 256.19 400.35 263.35 C 393.23 270.83 382.89 274.07 372.90 275.29 C 363.99 276.57 354.96 275.84 346.00 276.03 C 333.83 275.83 321.49 276.92 309.51 274.21 C 301.77 272.52 294.14 269.23 288.55 263.47 C 287.25 260.31 288.31 256.54 286.75 253.39 C 285.75 250.41 283.20 248.41 280.35 247.35 C 278.90 243.06 278.75 238.50 278.79 234.02 C 278.85 214.69 278.74 195.35 278.86 176.02 C 278.99 165.30 282.55 154.02 290.98 146.95 C 300.37 139.21 312.92 137.07 324.74 136.57 Z" />
<path fill="#74a72b" d=" M 428.52 139.11 C 430.53 137.23 433.21 136.32 435.96 136.48 C 463.60 136.49 491.23 136.43 518.87 136.51 C 528.55 136.85 538.94 137.97 546.95 143.96 C 555.70 149.87 558.99 160.86 558.46 171.00 C 558.45 184.01 558.53 197.02 558.48 210.03 C 558.57 218.81 556.04 228.30 549.08 234.14 C 541.38 240.72 530.88 242.44 521.08 242.98 C 500.58 243.23 480.07 242.79 459.57 243.20 C 459.59 251.78 459.76 260.36 459.54 268.94 C 459.68 272.12 457.38 275.30 454.15 275.74 C 449.11 276.37 444.02 275.86 438.95 276.05 C 435.62 276.04 431.81 276.47 429.14 274.04 C 426.57 271.34 427.19 267.38 427.15 263.99 C 427.22 224.35 427.35 184.71 427.36 145.07 C 427.29 143.02 427.93 141.05 428.52 139.11 Z" />
<path fill="#74a72b" d=" M 578.06 138.09 C 581.24 135.87 585.37 136.61 589.03 136.47 C 594.27 136.74 599.72 135.73 604.79 137.49 C 606.52 139.20 608.09 141.25 607.86 143.84 C 608.09 174.24 608.03 204.65 608.04 235.06 C 607.95 239.55 608.94 244.41 612.23 247.68 C 615.73 251.10 620.89 251.92 625.60 251.82 C 621.47 255.21 618.59 260.45 619.28 265.92 C 619.58 269.85 621.83 273.20 624.35 276.08 C 612.14 275.88 599.17 274.12 589.07 266.70 C 579.86 259.87 575.74 248.10 575.74 236.95 C 575.58 207.98 575.79 179.01 575.74 150.03 C 575.86 146.04 575.12 141.30 578.06 138.09 Z" />
<path fill="#74a72b" d=" M 678.93 137.12 C 683.14 135.90 687.62 136.71 691.95 136.48 C 695.96 136.71 700.40 135.72 704.03 137.88 C 707.09 139.88 706.80 143.84 706.92 147.03 C 706.95 176.36 707.09 205.70 707.01 235.03 C 706.89 239.83 708.11 245.11 711.91 248.34 C 715.28 251.04 719.70 251.84 723.92 251.90 C 724.13 216.24 723.85 180.56 724.16 144.90 C 723.95 142.01 725.06 139.34 727.26 137.45 C 729.44 136.72 731.72 136.41 734.03 136.48 C 761.35 136.50 788.67 136.43 815.98 136.52 C 826.75 136.80 838.59 138.53 846.67 146.33 C 852.96 152.01 855.28 160.80 855.30 169.01 C 855.29 183.34 855.40 197.67 855.28 212.00 C 855.19 220.58 851.99 229.61 844.98 234.93 C 837.37 240.87 827.44 242.41 818.07 242.98 C 797.54 243.18 776.99 242.88 756.46 243.13 C 756.11 251.76 757.02 260.37 756.66 269.00 C 756.77 272.60 753.73 276.07 750.05 276.04 C 745.04 276.35 740.02 276.11 735.02 276.17 C 723.29 275.89 711.24 276.70 699.92 272.97 C 696.59 271.96 693.54 270.20 690.90 267.93 C 682.18 274.94 670.48 275.66 659.77 276.09 C 662.22 273.23 664.55 269.97 664.84 266.08 C 665.61 260.54 662.68 255.19 658.39 251.86 C 662.48 251.67 666.86 250.90 669.98 248.01 C 673.58 244.79 674.57 239.72 674.59 235.10 C 674.66 205.08 674.64 175.05 674.69 145.03 C 674.80 142.05 675.46 137.92 678.93 137.12 Z" />
<path fill="#fefefe" d=" M 459.31 160.26 C 478.55 160.38 497.79 160.27 517.04 160.31 C 519.45 160.27 521.98 160.56 524.02 161.98 C 525.95 163.28 526.05 165.87 526.19 167.97 C 526.47 179.64 526.79 191.33 526.30 203.00 C 526.31 207.36 526.92 211.86 525.39 216.05 C 524.44 216.81 523.52 217.59 522.61 218.40 C 518.21 219.73 513.57 219.23 509.05 219.30 C 492.49 219.35 475.93 219.18 459.37 219.39 C 459.23 199.68 459.45 179.97 459.31 160.26 Z" />
<path fill="#fefefe" d=" M 314.99 164.98 C 317.98 161.55 322.67 160.45 327.05 160.44 C 338.35 160.36 349.66 160.41 360.96 160.42 C 365.61 160.42 370.82 161.22 373.98 165.01 C 377.39 168.38 377.79 173.42 377.88 177.96 C 377.94 195.64 377.83 213.32 377.91 231.01 C 377.94 234.72 377.72 238.43 377.37 242.13 C 376.25 244.06 375.14 246.00 374.07 247.97 C 372.16 249.15 370.22 250.29 368.23 251.34 C 358.58 253.06 348.75 252.03 339.01 252.33 C 331.81 252.46 324.50 252.63 317.58 250.33 L 317.58 249.69 C 311.57 247.11 311.08 239.66 310.70 234.01 C 310.77 215.08 310.75 196.14 310.83 177.21 C 311.27 172.96 311.45 167.95 314.99 164.98 Z" />
<path fill="#fefefe" d=" M 756.29 160.32 C 776.93 160.64 797.58 159.99 818.20 160.65 C 819.14 161.07 820.09 161.48 821.06 161.89 C 821.93 163.87 823.33 165.78 823.34 168.03 C 823.35 182.03 823.33 196.03 823.41 210.03 C 823.46 211.93 822.85 213.75 822.42 215.58 C 821.47 216.48 820.54 217.38 819.63 218.30 C 817.44 218.76 815.27 219.39 813.03 219.41 C 794.13 219.44 775.23 219.31 756.33 219.47 C 756.18 199.75 756.31 180.03 756.29 160.32 Z" />
<path fill="#a20103" d=" M 89.59 197.68 C 108.23 181.98 133.20 176.05 157.14 176.26 C 160.70 176.22 163.48 180.97 160.84 183.76 C 159.32 185.96 156.43 185.77 154.08 185.83 C 131.97 185.68 108.99 192.24 92.55 207.54 C 76.24 222.38 67.34 243.71 63.72 265.12 C 62.64 270.66 62.67 276.33 61.70 281.89 C 59.94 283.23 57.59 284.77 55.43 283.27 C 51.92 281.54 53.04 277.05 53.11 273.91 C 55.60 245.37 66.99 216.22 89.59 197.68 Z" />
<path fill="#a20103" d=" M 104.79 220.81 C 118.03 208.71 136.46 203.85 154.07 204.16 C 157.29 204.21 159.71 208.12 158.05 210.99 C 156.67 214.08 152.79 213.47 150.05 213.68 C 134.30 213.81 118.10 219.50 107.38 231.37 C 95.71 244.25 90.59 261.79 89.70 278.85 C 88.74 282.36 84.52 282.73 81.76 281.18 C 79.69 277.37 80.87 272.98 81.18 268.90 C 83.68 250.97 91.05 233.03 104.79 220.81 Z" />
<path fill="#a20103" d=" M 147.50 231.69 C 151.13 231.54 155.33 230.06 158.61 232.23 C 161.96 234.59 160.14 240.68 155.91 240.55 C 146.64 240.74 136.83 242.27 129.42 248.30 C 120.39 255.58 117.24 267.87 117.86 279.05 C 118.44 282.24 115.09 285.39 111.94 284.27 C 109.44 283.80 108.45 281.19 108.42 278.92 C 107.91 266.91 111.09 254.26 119.23 245.14 C 126.32 237.02 136.94 232.74 147.50 231.69 Z" />
<path fill="#a20103" d=" M 150.82 254.78 C 158.78 251.45 167.49 250.51 176.04 250.15 C 208.70 250.12 241.37 250.16 274.04 250.13 C 276.88 250.16 280.17 250.65 282.09 252.98 C 284.70 256.42 283.91 260.98 284.07 265.00 C 283.92 268.70 284.51 272.95 281.92 275.98 C 280.00 278.28 276.76 278.48 273.99 278.63 C 242.34 278.67 210.68 278.61 179.03 278.65 C 176.42 278.69 173.54 278.73 171.45 280.54 C 168.58 282.74 168.18 286.68 168.21 290.04 C 168.28 318.70 168.13 347.35 168.28 376.01 C 168.10 380.83 172.00 385.45 177.04 385.09 C 200.00 385.15 222.96 385.08 245.93 385.12 C 245.96 372.14 246.00 359.15 245.91 346.17 C 229.93 346.01 213.95 346.15 197.97 346.10 C 195.07 346.11 191.76 345.67 189.88 343.19 C 187.58 339.91 188.10 335.72 187.98 331.95 C 188.05 328.21 187.58 324.07 189.78 320.79 C 191.68 318.26 194.97 317.70 197.94 317.77 C 222.96 317.75 247.98 317.77 273.00 317.75 C 275.81 317.82 279.00 317.67 281.23 319.70 C 283.72 321.66 284.06 325.05 284.05 327.99 C 284.04 353.34 284.07 378.70 284.03 404.05 C 284.06 406.72 283.49 409.62 281.48 411.54 C 279.17 413.56 275.95 413.66 273.04 413.74 C 244.67 413.74 216.31 413.73 187.95 413.74 C 172.98 413.76 156.66 414.03 143.77 405.24 C 134.22 398.90 130.28 387.09 130.14 376.07 C 130.08 349.38 130.14 322.69 130.13 296.00 C 129.92 286.77 130.17 277.01 134.72 268.70 C 138.12 262.25 144.15 257.52 150.82 254.78 Z" />
<path fill="#a20103" d=" M 636.50 250.80 C 644.46 248.84 653.99 251.20 658.98 258.01 C 662.32 262.33 661.51 268.93 657.59 272.62 C 649.92 280.17 636.45 280.61 628.05 274.03 C 624.22 271.19 622.03 266.05 623.45 261.38 C 625.30 255.70 630.88 252.04 636.50 250.80 Z" />
<path fill="#a20103" d=" M 314.47 299.51 C 323.08 291.93 334.90 289.58 346.03 288.94 C 361.00 288.70 375.97 288.86 390.95 288.84 C 403.26 288.88 416.51 290.64 426.48 298.46 C 435.06 305.15 438.57 316.48 438.27 327.04 C 438.51 337.09 435.53 347.87 427.71 354.66 C 418.27 362.97 405.10 365.11 392.92 365.31 C 375.97 365.49 359.01 365.30 342.05 365.42 C 342.11 369.86 341.70 374.34 342.28 378.76 C 343.00 382.81 347.05 385.33 351.00 385.12 C 386.31 385.10 421.63 385.12 456.95 385.11 C 457.07 356.76 456.93 328.41 457.00 300.06 C 457.01 296.84 457.13 293.00 459.85 290.77 C 462.07 288.78 465.23 288.85 468.03 288.80 C 494.01 288.87 519.99 288.77 545.97 288.86 C 557.88 289.03 570.61 291.10 580.12 298.82 C 587.87 305.10 591.33 315.24 591.50 324.97 C 591.82 338.93 591.48 352.89 591.69 366.85 C 591.77 370.99 592.56 375.29 595.11 378.68 C 598.24 383.05 603.79 384.97 608.99 385.09 C 614.67 385.17 620.34 385.05 626.02 385.14 C 623.92 378.31 622.85 371.18 622.98 364.03 C 623.03 342.00 622.87 319.98 623.05 297.96 C 622.74 293.79 625.49 289.28 629.93 289.01 C 637.62 288.65 645.35 288.80 653.05 288.91 C 657.42 288.72 661.20 292.61 661.00 296.96 C 661.22 319.98 661.01 343.02 661.09 366.04 C 661.06 372.18 663.05 379.07 668.65 382.37 C 675.25 386.48 683.32 384.71 690.66 385.16 C 689.97 381.50 689.80 377.77 689.83 374.05 C 689.85 358.04 689.80 342.04 689.86 326.03 C 689.80 316.29 692.98 306.01 700.49 299.45 C 709.10 291.92 720.89 289.54 732.00 288.95 C 744.99 288.69 757.99 288.88 770.99 288.82 C 784.11 288.61 798.13 289.25 809.57 296.42 C 817.46 301.21 822.35 309.89 823.67 318.90 C 824.93 328.99 824.39 339.97 818.72 348.75 C 813.83 356.52 805.22 361.11 796.49 363.19 C 786.55 365.79 776.20 365.34 766.02 365.38 C 753.30 365.42 740.58 365.31 727.86 365.43 C 728.29 370.58 726.89 376.12 729.07 380.99 C 730.84 384.63 735.36 385.42 739.03 385.13 C 773.68 385.07 808.32 385.14 842.96 385.10 C 846.38 385.07 850.54 385.33 852.73 388.37 C 854.98 391.42 854.24 395.47 854.42 399.02 C 854.22 402.71 854.96 406.77 853.04 410.12 C 851.18 413.16 847.28 413.67 844.03 413.74 C 772.37 413.73 700.70 413.74 629.03 413.74 C 613.46 413.59 597.39 414.72 582.42 409.56 C 573.27 406.55 564.82 400.72 559.91 392.31 C 555.35 384.72 553.66 375.75 553.58 367.00 C 553.50 353.99 553.58 340.98 553.54 327.98 C 553.50 325.14 553.16 322.06 551.23 319.84 C 548.83 317.41 545.21 317.08 541.99 317.12 C 526.39 317.19 510.78 317.08 495.18 317.18 C 495.01 346.10 495.09 375.02 495.18 403.94 C 495.23 406.87 494.65 410.26 492.07 412.06 C 488.75 414.11 484.68 413.65 480.96 413.76 C 437.96 413.69 394.95 413.78 351.95 413.71 C 339.49 413.44 326.06 412.04 315.90 404.11 C 307.63 397.77 303.95 387.06 303.91 376.92 C 303.86 359.96 303.87 343.00 303.91 326.04 C 303.91 316.33 307.01 306.10 314.47 299.51 Z" />
<path fill="#fefefe" d=" M 342.99 322.03 C 344.60 318.16 349.19 317.17 352.96 317.20 C 365.67 317.26 378.39 317.07 391.10 317.30 C 395.10 317.28 399.08 319.83 399.88 323.92 C 400.12 327.16 400.55 330.84 398.38 333.57 C 396.26 336.44 392.35 337.05 389.02 336.96 C 373.36 336.89 357.70 337.04 342.05 336.88 C 342.26 331.95 341.19 326.74 342.99 322.03 Z" />
<path fill="#fefefe" d=" M 728.24 323.87 C 729.07 319.42 733.70 316.99 737.94 317.19 C 750.66 317.16 763.38 317.15 776.10 317.20 C 780.15 317.07 784.63 319.08 785.70 323.32 C 786.19 326.68 786.55 330.56 784.42 333.48 C 782.61 336.16 779.09 337.00 776.03 336.96 C 760.02 336.95 744.01 336.97 728.01 336.94 C 728.10 332.58 727.73 328.20 728.24 323.87 Z" />
</svg>
